<svg width="63" height="52" viewBox="0 0 63 52" fill="none" xmlns="http://www.w3.org/2000/svg">
<path d="M59.5704 34.8236H63L58.5151 30.1628C52.0956 23.4795 43.2139 19.6982 33.8924 19.6982H32.8372H30.5508H29.4076C20.174 19.6982 11.2923 23.4795 4.78484 30.1628L0.299988 34.8236H3.72958C12.9631 34.8236 21.8449 31.0422 28.3523 24.3589L31.694 20.9293C29.7593 32.713 12.9631 51.356 12.9631 51.356H31.7819H50.6007C50.6007 51.356 33.9804 32.9769 31.8698 21.1931L34.9477 24.4468C41.3672 31.0422 50.2489 34.8236 59.5704 34.8236Z" fill="white"/>
<path d="M28.8799 12.839L31.606 10.025L34.3321 12.839C39.6084 18.3791 46.9952 21.4569 54.6459 21.4569H57.4599L53.7665 17.5877C48.4902 12.0475 41.1034 8.9697 33.4527 8.9697H32.5733H30.6387H29.7593C22.1087 8.9697 14.8098 12.0475 9.44557 17.5877L5.75217 21.5449H8.56619C16.2168 21.5449 23.6036 18.3791 28.8799 12.839Z" fill="white"/>
<path d="M29.4076 3.16578L31.606 0.879383L33.8045 3.16578C38.1135 7.65063 44.0933 10.2008 50.3369 10.2008H52.6233L49.6334 7.03506C45.3244 2.55021 39.3446 0 33.101 0H32.3975H30.8146H30.1111C23.8675 0 17.8877 2.55021 13.5787 7.03506L10.5888 10.2008H12.8752C19.1188 10.2008 25.0986 7.65063 29.4076 3.16578Z" fill="white"/>
</svg>
